{"title":"The Twilight Saga Breaking Dawn - Part 2 2012 TS NEW SOURCE XViD","uid":7845178,"size":1508709437,"categoryP":"video","categoryS":"movies","magnet":"?xt=urn:btih:2d5f7fc4297c105948f35d07691c7deda78f50c9&amp;dn=The+Twilight+Saga+Breaking+Dawn+-+Part+2+2012+TS+NEW+SOURCE+XViD&amp;tr=udp%3A%2F%2Ftracker.openbittorrent.com%3A80&amp;tr=udp%3A%2F%2Fopen.demonii.com%3A1337&amp;tr=udp%3A%2F%2Ftracker.coppersurfer.tk%3A6969&amp;tr=udp%3A%2F%2Fexodus.desync.com%3A6969","seeders":2,"leechers":0,"uploader":"Acesn8s","files":-1,"time":1353452809,"description":"The Twilight Saga Breaking Dawn - Part 2 2012 TS NEW SOURCE XViD - INSPiRAL\n\nSOURCES:\n\nVIDEO -  ADTRG 720p THANKS\nAUDIO -  ADTRG 720p THANKS\nSUBS  - None Add\n\nSTATS:\n\nVideo\nID                               : 0\nFormat                           : MPEG-4 Visual\nFormat profile                   : Advanced Simple@L5\nFormat settings, BVOP            : 2\nFormat settings, QPel            : No\nFormat settings, GMC             : No warppoints\nFormat settings, Matrix          : Default (MPEG)\nMuxing mode                      : Packed bitstream\nCodec ID                         : XVID\nCodec ID/Hint                    : XviD\nDuration                         : 1h 42mn\nBit rate                         : 1 786 Kbps\nWidth                            : 720 pixels\nHeight                           : 288 pixels\nDisplay aspect ratio             : 2.500\nFrame rate                       : 25.000 fps\nColor space                      : YUV\nChroma subsampling               : 4:2:0\nBit depth                        : 8 bits\nScan type                        : Progressive\nCompression mode                 : Lossy\nBits/(Pixel*Frame)               : 0.345\nStream size                      : 1.28 GiB (93%)\nWriting library                  : XviD 64\n\nAudio\nID                               : 1\nFormat                           : MPEG Audio\nFormat version                   : Version 1\nFormat profile                   : Layer 3\nMode                             : Joint stereo\nMode extension                   : MS Stereo\nCodec ID                         : 55\nCodec ID/Hint                    : MP3\nDuration                         : 1h 42mn\nBit rate mode                    : Constant\nBit rate                         : 128 Kbps\nChannel(s)                       : 2 channels\nSampling rate                    : 48.0 KHz\nCompression mode                 : Lossy\nStream size                      : 93.9 MiB (7%)\nAlignment                        : Split accross interleaves\nInterleave, duration             : 40 ms (1.00 video frame)\nInterleave, preload duration     : 500 ms\n\n\nIMDB: &lt;a href=&quot; http://www.imdb.com/title/tt1673434/&quot; rel=&quot;nofollow&quot; target=&quot;_NEW&quot;&gt; http://www.imdb.com/title/tt1673434/&lt;/a&gt;\n\n\n\n\nAfter the birth of Renesmee, the Cullens gather other vampire clans in order to protect the child from a false allegation that puts the family in front of the Volturi.\n\n\n\n\n\nVIDEO - Very nice,seemed a little cropped,but not too much.Video did have alot of noise and AR looked a little\noff.\n\nAUDIO - Nice and got to say probably slightly better than jiinx this time round....this one has more life to it,with\nthat bass balance decent.Still got issue and also oos throughout for me.\n\nOh the &quot;new source&quot; tag was used because we already did a TS and wanted users to know it was a different source used.\n\n\nWORKDONE:\n\nRight took the 720p files and resized them,thought the 720 x 304 2.351 looked slightly wrong to me so opted for the 720 x 288\nres.....think its due to the crop.\nAnyway this corrected the AR ...and from there i used a HQ smoother as the source contained a fair amount of noise,so had to smooth\nit a fair bit aswell.Also changed the brightness/contrast/hue/intes and rgb colours slightly.\nOnce all done it was a case of adding a touch of sharpness back ...only used +8 otherwise back to square one and making more noise.\n\nAudio i had to stripped and totally resync it,as it was oos for us ...needed 11 cuts ranging from -300 to + 400.Once done saved the file\nand dropped in AA to give it some TLC aswell.\nTweaked the EQ bands and lowered the DB's ....before saving as mp3 and remuxing to our rip.\n\n\n\nTop work on those that got use this video and audio and also on the other audios ( jiinx ) ....so hats off lads\nIMHO this video source is best to date and can only see a R5 really beating it.\nAudio wise ...this time round adtrg have edged it....got more to it than jiinxs.BUT both are decent line audio.\n\nV8.5 A8.5 M4'ish lol ....\n &lt;a href=&quot;\nhttp://i.imgrz.com/6GJBc.png&quot; rel=&quot;nofollow&quot; target=&quot;_NEW&quot;&gt;\nhttp://i.imgrz.com/6GJBc.png&lt;/a&gt;\n &lt;a href=&quot;\nhttp://i.imgrz.com/JNIjo.png&quot; rel=&quot;nofollow&quot; target=&quot;_NEW&quot;&gt;\nhttp://i.imgrz.com/JNIjo.png&lt;/a&gt;\n &lt;a href=&quot;\nhttp://i.imgrz.com/GR3u.png&quot; rel=&quot;nofollow&quot; target=&quot;_NEW&quot;&gt;\nhttp://i.imgrz.com/GR3u.png&lt;/a&gt;\n &lt;a href=&quot;\nhttp://i.imgrz.com/hjPq.png&quot; rel=&quot;nofollow&quot; target=&quot;_NEW&quot;&gt;\nhttp://i.imgrz.com/hjPq.png&lt;/a&gt;\n &lt;a href=&quot;\nhttp://i.imgrz.com/dRAsI.png&quot; rel=&quot;nofollow&quot; target=&quot;_NEW&quot;&gt;\nhttp://i.imgrz.com/dRAsI.png&lt;/a&gt;\n","torrent":{"xt":"urn:btih:2d5f7fc4297c105948f35d07691c7deda78f50c9","amp;dn":"The+Twilight+Saga+Breaking+Dawn+-+Part+2+2012+TS+NEW+SOURCE+XViD","amp;tr":["udp%3A%2F%2Ftracker.openbittorrent.com%3A80","udp%3A%2F%2Fopen.demonii.com%3A1337","udp%3A%2F%2Ftracker.coppersurfer.tk%3A6969","udp%3A%2F%2Fexodus.desync.com%3A6969"],"infoHash":"2d5f7fc4297c105948f35d07691c7deda78f50c9","infoHashBuffer":{"type":"Buffer","data":[45,95,127,196,41,124,16,89,72,243,93,7,105,28,125,237,167,143,80,201]},"announce":[],"urlList":[]}}